<svg width="12" height="12" viewBox="0 0 12 12" fill="none" xmlns="http://www.w3.org/2000/svg">
<path fill-rule="evenodd" clip-rule="evenodd" d="M9.84481 8.27404L11.8275 10.2509C11.9379 10.3604 12 10.5094 12 10.6649C12 10.8204 11.9379 10.9695 11.8275 11.079C11.718 11.1894 11.569 11.2515 11.4135 11.2515C11.258 11.2515 11.1089 11.1894 10.9994 11.079L9.02258 9.09628C8.2076 9.73598 7.20121 10.0831 6.16516 10.0818C3.58867 10.0818 1.5 7.99313 1.5 5.41663C1.5 2.84013 3.58867 0.751465 6.16516 0.751465C8.74166 0.751465 10.8303 2.84013 10.8303 5.41663C10.8316 6.45268 10.4845 7.45907 9.84481 8.27404ZM6.16516 1.91776C4.23279 1.91776 2.66629 3.48425 2.66629 5.41663C2.66629 7.349 4.23279 8.9155 6.16516 8.9155C8.09754 8.9155 9.66404 7.349 9.66404 5.41663C9.66404 3.48425 8.09754 1.91776 6.16516 1.91776Z" fill="#637381"/>
</svg>
